<?xml version="1.0" encoding="utf-8"?>
<!-- Generator: Adobe Illustrator 24.0.1, SVG Export Plug-In . SVG Version: 6.00 Build 0)  -->
<svg version="1.1" id="Layer_1" xmlns="http://www.w3.org/2000/svg" xmlns:xlink="http://www.w3.org/1999/xlink" x="0px" y="0px"
	 viewBox="0 0 1200 246" style="enable-background:new 0 0 1200 246;" xml:space="preserve">
<style type="text/css">
	.st0{fill:#31A9E0;}
	.st1{fill:#A1A1A1;}
</style>
<g>
	<g>
		<path class="st0" d="M277.23,200.08L170.33,16.34c-2.84-4.88-8.11-7.91-13.76-7.91c0,0,0,0,0,0l-32.68,0.01l113.45,194.98H128.02
			l-20.88-38.08l-40.38,72.68l-0.91,1.56h0.05l-0.43,0.78l2.15-0.78h187.14c2.95,0,5.69-1.6,7.15-4.16l15.39-27.14
			C278.71,205.73,278.7,202.6,277.23,200.08z"/>
		<path class="st1" d="M107.23,39.06L16.16,195.58c-2.83,4.87-2.87,10.95-0.09,15.85l16.14,28.48l75.03-128.95l38.5,66.18h41.84
			L107.23,39.06z"/>
	</g>
	<g>
		<path class="st0" d="M537.43,25.75c-2.22-3.79-4.76-6.78-7.67-9c-2.88-2.19-6.45-3.28-10.64-3.28c-4.21,0-7.8,1.09-10.79,3.28
			c-3.01,2.22-5.61,5.21-7.8,9L375.16,234.53h43.47l98.98-167.37l48.59,81.57h-66.87l-18.02,30.91h103.19l32.68,54.89h45.89
			L537.43,25.75z"/>
		<path class="st0" d="M889.56,202.73c9.62-9.99,17.06-21.76,22.36-35.25c5.3-13.49,7.95-28.23,7.95-44.23
			c0-15.8-2.61-30.25-7.8-43.34c-5.21-13.1-12.5-24.35-21.92-33.75c-9.39-9.4-20.63-16.69-33.73-21.89
			c-13.12-5.21-27.57-7.8-43.34-7.8h-53.09c-15.2,0-29.25,2.55-42.15,7.64s-24.11,12.3-33.59,21.6
			c-9.51,9.28-16.91,20.54-22.2,33.75c-5.3,13.18-7.95,27.79-7.95,43.79c0,15.8,2.66,30.49,7.95,44.1
			c5.3,13.58,12.7,25.33,22.2,35.23c9.48,9.9,20.7,17.7,33.59,23.4c12.9,5.69,26.95,8.55,42.15,8.55h53.09
			c9.59,0,18.75-1.15,27.43-3.46c2.88-0.75,5.67-1.62,8.42-2.57l-38.36-32.06h-50.59c-9.82,0-18.86-1.82-27.14-5.41
			c-8.31-3.59-15.45-8.55-21.45-14.85c-6-6.29-10.7-13.85-14.09-22.65c-3.41-8.8-5.1-18.3-5.1-28.5c0-10.39,1.68-19.9,5.1-28.5
			c3.39-8.6,8.09-16,14.09-22.2c6.01-6.18,13.14-11.04,21.45-14.54c8.29-3.5,17.33-5.25,27.14-5.25h53.09
			c9.99,0,19.19,1.75,27.59,5.25c8.4,3.5,15.64,8.35,21.74,14.54c6.12,6.2,10.86,13.65,14.25,22.36c3.41,8.69,5.1,18.15,5.1,28.34
			c0,10.99-1.95,21.1-5.85,30.29c-3.88,9.2-9.24,17-16.04,23.4l-40.48-34.19h-50.39l62.78,49.33l0.2,0.15l32.99,27.61l15,12.9h50.7
			L889.56,202.73z"/>
		<path class="st0" d="M1167.76,123.25c-11.5-10.39-28.34-15.6-50.54-15.6h-99.87c-8.4,0-15.07-2.3-19.97-6.89
			c-4.9-4.61-7.33-11.1-7.33-19.5c0-8.4,2.39-14.96,7.2-19.66c4.79-4.7,11.59-7.05,20.39-7.05h156.57V16.46h-156.57
			c-10.79,0-20.39,1.55-28.78,4.65c-8.4,3.1-15.44,7.33-21.16,12.74c-5.69,5.41-9.99,11.86-12.9,19.34s-4.34,15.64-4.34,24.44
			c0,9,1.55,17.31,4.65,24.91c3.1,7.6,7.49,14.14,13.18,19.63c5.72,5.52,12.7,9.82,21.01,12.9c8.29,3.12,17.55,4.65,27.74,4.65
			h100.18c10.19,0,18.04,2.35,23.55,7.05c5.5,4.72,8.24,11.77,8.24,21.16c0,8.6-2.75,15.49-8.24,20.7
			c-5.52,5.19-13.36,7.8-23.55,7.8H953.75v38.09h163.47c11.41,0,21.34-1.6,29.85-4.81c8.49-3.19,15.56-7.64,21.14-13.34
			c5.61-5.69,9.79-12.45,12.61-20.25c2.79-7.8,4.19-16.29,4.19-25.48C1185,149.44,1179.26,133.64,1167.76,123.25z"/>
	</g>
	<g>
		<line class="st1" x1="333.15" y1="7.6" x2="333.15" y2="240.4"/>
		<rect x="331.86" y="7.6" class="st1" width="2.58" height="232.8"/>
	</g>
</g>
</svg>
